<svg width="256" height="256" viewBox="0 0 256 256" fill="none" xmlns="http://www.w3.org/2000/svg">
<rect width="256" height="256" fill="#F3FBF7"/>
<rect x="178.57" y="35.1278" width="49" height="37" transform="rotate(8.14571 178.57 35.1278)" fill="#F3FBF7"/>
<path d="M218.883 35.6627C218.593 35.621 218.318 35.5558 218.051 35.4683C215.831 34.7415 214.382 32.4998 214.72 30.1115L216.231 19.5451L180.514 14.4453C180.012 14.3714 179.509 14.5026 179.102 14.8049C178.693 15.111 178.429 15.5546 178.357 16.0615L169.666 76.9251C169.592 77.427 169.723 77.9303 170.026 78.3376C170.333 78.7423 170.775 79.0105 171.282 79.0819L220.535 86.1139C221.576 86.2615 222.544 85.5385 222.692 84.4977L229.451 37.1698L218.883 35.6627ZM182.635 21.3134C182.751 20.4925 183.513 19.9239 184.334 20.0405L193.561 21.3596C194.382 21.4763 194.951 22.2379 194.834 23.0588C194.717 23.8796 193.956 24.4483 193.135 24.3316L183.908 23.0125C183.817 22.9994 183.733 22.9801 183.652 22.9534C182.972 22.731 182.53 22.0477 182.634 21.3171L182.635 21.3134ZM181.505 29.2339C181.622 28.413 182.383 27.8444 183.204 27.9611L192.431 29.2801C193.255 29.4017 193.821 30.1584 193.704 30.9793C193.588 31.8002 192.826 32.3688 192.005 32.2521L182.778 30.933C182.688 30.9199 182.604 30.9006 182.522 30.8739C181.842 30.6515 181.4 29.9683 181.504 29.2376L181.505 29.2339ZM180.375 37.1544C180.492 36.3336 181.254 35.7649 182.074 35.8816L222.432 41.6457C223.255 41.7673 223.823 42.5202 223.705 43.3448C223.588 44.1657 222.827 44.7344 222.006 44.6177L181.648 38.8535C181.558 38.8404 181.474 38.8211 181.392 38.7944C180.713 38.572 180.271 37.8888 180.374 37.1581L180.375 37.1544ZM179.246 45.0749C179.362 44.2541 180.124 43.6854 180.945 43.8021L221.335 49.5688C222.159 49.6903 222.726 50.4433 222.608 51.2679C222.491 52.0888 221.73 52.6574 220.909 52.5407L180.518 46.7741C180.428 46.761 180.344 46.7416 180.262 46.7149C179.583 46.4925 179.141 45.8093 179.244 45.0787L179.246 45.0749ZM178.116 52.9954C178.233 52.1746 178.994 51.6059 179.815 51.7226L220.205 57.4893C221.019 57.6035 221.595 58.3675 221.478 59.1884C221.362 60.0093 220.6 60.5779 219.779 60.4613L179.389 54.6946C179.302 54.6827 179.214 54.6622 179.133 54.6354C178.453 54.413 178.011 53.7298 178.115 52.9992L178.116 52.9954ZM196.711 65.2482L178.26 62.6114C178.174 62.5995 178.086 62.579 178.004 62.5523C177.325 62.3299 176.883 61.6466 176.986 60.916C177.103 60.0952 177.864 59.5265 178.685 59.6432L197.136 62.28C197.948 62.3979 198.526 63.1545 198.409 63.9791C198.292 64.8 197.53 65.3686 196.709 65.2519L196.711 65.2482ZM219.215 75.0281C219.098 75.849 218.337 76.4176 217.516 76.3009L204.848 74.4926C204.761 74.4807 204.673 74.4601 204.592 74.4334C203.912 74.211 203.47 73.5278 203.573 72.7972C203.69 71.9763 204.452 71.4076 205.273 71.5243L217.941 73.3327C218.757 73.4519 219.331 74.2072 219.214 75.0318L219.215 75.0281ZM217.699 30.5401L218.908 22.0743L227.784 33.9075L219.318 32.698C218.28 32.5554 217.551 31.581 217.699 30.5401Z" fill="#2F66A6"/>
<rect x="167" y="58.9067" width="63" height="41.9236" rx="3" transform="rotate(-10.8941 167 58.9067)" fill="#F3FBF7"/>
<path d="M224.307 70.3611L233.037 68.6808L234.434 75.9391L225.704 77.6194L224.307 70.3611Z" fill="#5DADC7"/>
<path d="M207.586 72.7083L197.768 68.8212L199.849 79.41L207.586 72.7083Z" fill="#5DADC7"/>
<path d="M227.428 47.2772L220.137 48.6804L222.066 58.7032L230.793 57.0207L229.14 48.4339C228.988 47.6413 228.22 47.1247 227.428 47.2772Z" fill="#5DADC7"/>
<path d="M171.172 80.5875L179.905 78.9067L181.302 86.165L172.569 87.8458L171.172 80.5875Z" fill="#5DADC7"/>
<path d="M174.646 98.6357C174.798 99.4283 175.566 99.9479 176.358 99.7954L183.657 98.3905L181.73 88.3734L172.994 90.0547L174.646 98.6357Z" fill="#5DADC7"/>
<path d="M167.276 60.3406L168.929 68.9295L177.662 67.2487L175.733 57.2259L168.437 58.6302C167.644 58.7828 167.124 59.5474 167.276 60.34L167.276 60.3406Z" fill="#5DADC7"/>
<path d="M169.354 71.1367L178.087 69.4559L179.48 76.6972L170.747 78.378L169.354 71.1367Z" fill="#5DADC7"/>
<path d="M222.488 60.9103L231.219 59.23L232.612 66.4713L223.882 68.1516L222.488 60.9103Z" fill="#5DADC7"/>
<path d="M204.237 85.7088C207.466 85.0874 210.315 83.2101 212.16 80.4864C214.004 77.7628 214.69 74.4202 214.068 71.1915C213.447 67.9628 211.57 65.1136 208.846 63.2691C206.122 61.4245 202.78 60.739 199.551 61.3604C196.322 61.9818 193.473 63.8591 191.629 66.5828C189.784 69.3064 189.099 72.649 189.72 75.8777C190.344 79.1057 192.224 81.9518 194.947 83.7934C197.668 85.6384 201.008 86.3274 204.237 85.7088ZM195.578 69.1251C195.425 68.344 195.712 67.5441 196.325 67.0367C196.938 66.532 197.777 66.3991 198.515 66.6924L208.535 70.6583C209.24 70.9408 209.747 71.5678 209.876 72.3134C210.003 73.0623 209.731 73.822 209.157 74.3193L201.223 81.1908C200.636 81.7017 199.822 81.8585 199.088 81.6044C198.352 81.3509 197.811 80.7247 197.663 79.9597L195.578 69.1251Z" fill="#5DADC7"/>
<path d="M185.864 97.9629L225.849 90.2671L217.927 49.105L177.941 56.8008L185.864 97.9629ZM199.124 59.1513C202.938 58.4172 206.889 59.2292 210.106 61.4053C213.321 63.5848 215.542 66.9524 216.276 70.7666C217.01 74.5808 216.198 78.5316 214.022 81.7491C211.842 84.964 208.475 87.1845 204.661 87.9186C200.846 88.6527 196.895 87.8407 193.678 85.6646C190.463 83.4851 188.243 80.1175 187.509 76.3032C186.78 72.4881 187.592 68.54 189.769 65.3253C191.946 62.1106 195.311 59.8909 199.124 59.1513Z" fill="#5DADC7"/>
<path d="M228.059 89.842L235.35 88.4388C236.142 88.2863 236.662 87.5217 236.509 86.7263L234.858 78.148L226.131 79.8278L228.059 89.842Z" fill="#5DADC7"/>
<path d="M97.9126 24.057C93.3927 19.5384 87.2632 17 80.872 17C74.4808 17 68.3513 19.5384 63.8313 24.057L49.6268 38.2575C49.2431 38.6281 48.9371 39.0713 48.7265 39.5614C48.516 40.0516 48.4052 40.5787 48.4005 41.1121C48.3959 41.6455 48.4976 42.1744 48.6995 42.6681C48.9015 43.1618 49.1998 43.6103 49.577 43.9875C49.9542 44.3647 50.4027 44.663 50.8964 44.865C51.3901 45.067 51.919 45.1686 52.4524 45.164C52.9858 45.1593 53.5129 45.0485 54.0031 44.838C54.4932 44.6274 54.9364 44.3214 55.307 43.9377L69.5116 29.7372C70.9976 28.2178 72.7702 27.0083 74.7269 26.1787C76.6836 25.3491 78.7854 24.9159 80.9107 24.9042C83.0359 24.8925 85.1424 25.3025 87.1081 26.1105C89.0738 26.9185 90.8596 28.1084 92.3623 29.6113C93.865 31.1143 95.0546 32.9004 95.8622 34.8662C96.6698 36.832 97.0795 38.9386 97.0674 41.0638C97.0553 43.1891 96.6218 45.2908 95.7918 47.2473C94.9619 49.2039 93.7521 50.9763 92.2324 52.4621L78.0319 66.6626C77.4703 67.2244 77.0878 67.9401 76.9329 68.7193C76.7779 69.4984 76.8575 70.306 77.1615 71.0399C77.4654 71.7738 77.9802 72.4012 78.6406 72.8426C79.3011 73.284 80.0776 73.5197 80.872 73.5199C81.3998 73.5217 81.9227 73.4186 82.4102 73.2166C82.8978 73.0145 83.3404 72.7175 83.7121 72.3428L97.9126 58.1423C100.158 55.9085 101.94 53.2529 103.156 50.3281C104.372 47.4033 104.998 44.2671 104.998 41.0996C104.998 37.9321 104.372 34.7959 103.156 31.8711C101.94 28.9464 100.158 26.2908 97.9126 24.057Z" fill="#31608E"/>
<path d="M24.0473 97.9079C28.5674 102.428 34.6978 104.967 41.09 104.967C47.4822 104.967 53.6126 102.428 58.1327 97.9079L72.3372 83.7073C72.7209 83.3368 73.0269 82.8935 73.2375 82.4034C73.448 81.9133 73.5588 81.3862 73.5635 80.8528C73.5681 80.3194 73.4665 79.7904 73.2645 79.2967C73.0625 78.803 72.7642 78.3545 72.387 77.9773C72.0098 77.6001 71.5613 77.3019 71.0676 77.0999C70.574 76.8979 70.045 76.7963 69.5116 76.8009C68.9782 76.8055 68.4511 76.9163 67.961 77.1269C67.4709 77.3374 67.0276 77.6434 66.657 78.0271L52.4685 92.2277C50.9764 93.7198 49.205 94.9034 47.2554 95.711C45.3058 96.5185 43.2163 96.9341 41.1061 96.9341C38.9959 96.9341 36.9063 96.5185 34.9568 95.711C33.0072 94.9034 31.2358 93.7198 29.7436 92.2277C26.7301 89.2142 25.0372 85.127 25.0372 80.8652C25.0372 76.6035 26.7301 72.5163 29.7436 69.5028L43.9482 55.3022C44.3319 54.9317 44.6379 54.4884 44.8484 53.9983C45.059 53.5082 45.1698 52.9811 45.1744 52.4477C45.1791 51.9143 45.0774 51.3853 44.8754 50.8916C44.6735 50.3979 44.3752 49.9494 43.998 49.5722C43.6208 49.195 43.1723 48.8968 42.6786 48.6948C42.1849 48.4928 41.6559 48.3911 41.1225 48.3958C40.5892 48.4004 40.062 48.5112 39.5719 48.7218C39.0818 48.9323 38.6385 49.2383 38.268 49.622L24.0473 63.8226C19.5344 68.3463 17 74.4753 17 80.8652C17 87.2551 19.5344 93.3841 24.0473 97.9079Z" fill="#31608E"/>
<path d="M66.6712 51.2849C65.6059 51.2851 64.5843 51.7085 63.8311 52.4619L52.4666 63.8224C52.0829 64.1929 51.7769 64.6362 51.5664 65.1263C51.3558 65.6164 51.245 66.1435 51.2404 66.6769C51.2358 67.2103 51.3374 67.7393 51.5394 68.233C51.7414 68.7267 52.0396 69.1752 52.4168 69.5524C52.794 69.9296 53.2425 70.2278 53.7362 70.4298C54.2299 70.6318 54.7589 70.7334 55.2923 70.7288C55.8257 70.7242 56.3528 70.6134 56.8429 70.4028C57.333 70.1923 57.7763 69.8863 58.1468 69.5026L69.5113 58.1421C70.0729 57.5803 70.4554 56.8646 70.6103 56.0855C70.7652 55.3064 70.6857 54.4988 70.3817 53.7649C70.0777 53.0309 69.563 52.4036 68.9025 51.9622C68.2421 51.5208 67.4656 51.2851 66.6712 51.2849Z" fill="#31608E"/>
<path d="M38.2638 34.2406C38.2636 33.1753 37.8402 32.1537 37.0868 31.4005L31.4066 25.7203C31.036 25.3366 30.5928 25.0306 30.1027 24.82C29.6126 24.6095 29.0854 24.4987 28.552 24.494C28.0186 24.4894 27.4897 24.5911 26.996 24.793C26.5023 24.995 26.0538 25.2933 25.6766 25.6705C25.2994 26.0477 25.0011 26.4962 24.7991 26.9899C24.5972 27.4836 24.4955 28.0125 24.5002 28.5459C24.5048 29.0793 24.6156 29.6065 24.8261 30.0966C25.0367 30.5867 25.3427 31.0299 25.7264 31.4005L31.4066 37.0807C31.9684 37.6423 32.6841 38.0248 33.4632 38.1797C34.2424 38.3347 35.05 38.2551 35.7839 37.9511C36.5178 37.6472 37.1451 37.1324 37.5866 36.472C38.028 35.8115 38.2637 35.035 38.2638 34.2406Z" fill="#31608E"/>
<path d="M38.7559 22.6751V30.7093C38.7559 31.7748 39.1791 32.7965 39.9324 33.5499C40.6858 34.3032 41.7076 34.7265 42.773 34.7265C43.8384 34.7265 44.8602 34.3032 45.6135 33.5499C46.3669 32.7965 46.7901 31.7748 46.7901 30.7093V22.6751C46.7901 21.6097 46.3669 20.5879 45.6135 19.8345C44.8602 19.0812 43.8384 18.658 42.773 18.658C41.7076 18.658 40.6858 19.0812 39.9324 19.8345C39.1791 20.5879 38.7559 21.6097 38.7559 22.6751Z" fill="#31608E"/>
<path d="M30.7233 38.7435H22.689C21.6236 38.7435 20.6018 39.1668 19.8485 39.9201C19.0951 40.6735 18.6719 41.6952 18.6719 42.7607C18.6719 43.8261 19.0951 44.8478 19.8485 45.6012C20.6018 46.3546 21.6236 46.7778 22.689 46.7778H30.7233C31.7887 46.7778 32.8104 46.3546 33.5638 45.6012C34.3172 44.8478 34.7404 43.8261 34.7404 42.7607C34.7404 41.6952 34.3172 40.6735 33.5638 39.9201C32.8104 39.1668 31.7887 38.7435 30.7233 38.7435Z" fill="#31608E"/>
<path d="M83.7148 87.7245C83.7151 88.7898 84.1384 89.8115 84.8919 90.5646L90.5721 96.2449C90.9427 96.6285 91.3859 96.9346 91.876 97.1451C92.3661 97.3556 92.8933 97.4664 93.4266 97.4711C93.96 97.4757 94.489 97.3741 94.9827 97.1721C95.4764 96.9701 95.9249 96.6718 96.3021 96.2946C96.6793 95.9175 96.9776 95.4689 97.1795 94.9753C97.3815 94.4816 97.4832 93.9526 97.4785 93.4192C97.4739 92.8858 97.3631 92.3587 97.1525 91.8686C96.942 91.3785 96.636 90.9352 96.2523 90.5646L90.5721 84.8844C90.0103 84.3228 89.2946 83.9403 88.5154 83.7854C87.7363 83.6305 86.9287 83.71 86.1948 84.014C85.4609 84.318 84.8335 84.8327 84.3921 85.4932C83.9507 86.1536 83.715 86.9301 83.7148 87.7245Z" fill="#31608E"/>
<path d="M91.2613 83.2213H99.2955C100.361 83.2213 101.383 82.798 102.136 82.0447C102.889 81.2913 103.313 80.2695 103.313 79.2041C103.313 78.1387 102.889 77.117 102.136 76.3636C101.383 75.6102 100.361 75.187 99.2955 75.187H91.2613C90.1959 75.187 89.1741 75.6102 88.4207 76.3636C87.6674 77.117 87.2441 78.1387 87.2441 79.2041C87.2441 80.2695 87.6674 81.2913 88.4207 82.0447C89.1741 82.798 90.1959 83.2213 91.2613 83.2213Z" fill="#31608E"/>
<path d="M79.2105 87.2384C78.1451 87.2384 77.1233 87.6616 76.3699 88.415C75.6166 89.1684 75.1934 90.1901 75.1934 91.2555V99.2898C75.1934 100.355 75.6166 101.377 76.3699 102.13C77.1233 102.884 78.1451 103.307 79.2105 103.307C80.2759 103.307 81.2977 102.884 82.051 102.13C82.8044 101.377 83.2276 100.355 83.2276 99.2898V91.2555C83.2276 90.1901 82.8044 89.1684 82.051 88.415C81.2977 87.6616 80.2759 87.2384 79.2105 87.2384Z" fill="#31608E"/>
<path d="M39.4468 104.675C40.8989 124.135 53.013 145.208 74.8904 145.386C85.0619 145.485 95.3749 139.338 99.1432 129.694C102.066 122.209 98.2255 113.579 89.4034 114.853C86.3582 115.41 83.4904 116.687 81.0394 118.578C78.5884 120.469 76.6253 122.919 75.314 125.723C65.1716 147.041 90.2953 161.867 108.251 162.273C129.081 162.768 148.832 152.253 161.236 135.831C163.038 133.451 166.893 136.034 165.091 138.414C151.638 156.217 130.405 167.465 107.876 166.899C89.527 166.459 69.1889 155.397 68.6628 134.94C68.5527 130.58 69.6111 126.27 71.7284 122.456C73.8457 118.643 76.9447 115.466 80.7039 113.254C86.7936 109.662 96.0879 108.228 101.554 113.791C107.852 120.118 104.739 130.836 100.207 137.228C97.6612 140.751 94.4007 143.698 90.6385 145.875C86.8763 148.052 82.6971 149.411 78.3739 149.864C52.9061 152.449 36.5711 128.25 34.888 105.503C34.6728 102.57 39.2254 101.693 39.4468 104.675Z" fill="url(#paint0_linear_124_63)"/>
<path d="M156.241 158.113C159.386 150.637 162.09 142.983 164.339 135.19L166.35 138.252C156.789 138 147.27 136.906 137.901 134.984C135.021 134.385 135.368 129.738 138.276 130.359C147.639 132.287 157.154 133.383 166.711 133.634C167.063 133.666 167.403 133.777 167.706 133.959C168.009 134.141 168.268 134.389 168.461 134.685C168.655 134.98 168.78 135.316 168.826 135.666C168.872 136.017 168.838 136.373 168.728 136.709C166.495 144.491 163.81 152.136 160.685 159.605C159.535 162.339 155.133 160.827 156.311 158.079L156.241 158.113Z" fill="#305F8D"/>
<rect x="166.039" y="74.9148" width="69" height="45" transform="rotate(15 166.039 74.9148)" fill="#F3FBF7"/>
<path d="M181.848 105.293L178.694 98.713L158.503 112.517L157.423 116.546L191.646 125.716L181.848 105.293Z" fill="#305F8D"/>
<path d="M238.995 91.8877L167.826 72.8179C166.147 72.368 164.405 73.3735 163.956 75.0525L152.818 116.617C152.365 118.308 153.374 120.038 155.053 120.488L218.513 137.492C218.611 137.518 218.703 137.523 218.793 137.534C218.932 137.56 219.058 137.585 219.188 137.6L219.767 135.438L155.863 118.311C155.455 118.201 155.173 117.867 155.103 117.476C155.08 117.337 155.078 117.178 155.12 117.024L166.15 75.8588C166.191 75.7041 166.267 75.5708 166.37 75.4607C166.629 75.1581 167.027 75.0141 167.435 75.1233L238.189 94.0818C238.585 94.188 238.863 94.5091 238.937 94.8809C238.969 95.0349 238.976 95.2027 238.933 95.365L229.731 129.705L231.893 130.284C231.976 130.128 232.034 129.957 232.088 129.786C232.101 129.737 232.135 129.685 232.148 129.636L241.229 95.7584C241.682 94.068 240.674 92.3376 238.995 91.8877Z" fill="#305F8D"/>
<path d="M223.363 130.166L221.59 136.784L228.093 133.039L229.99 131.954L229.978 131.951L229.993 131.943L223.363 130.166Z" fill="#305F8D"/>
<path d="M194.321 126.432L220.326 133.4L221.61 128.608C221.648 128.465 221.712 128.345 221.791 128.232C222.044 127.908 222.478 127.753 222.893 127.864L226.477 128.825L213.502 102.326L205.123 108.063L190.357 118.164L193.059 123.805L194.319 126.44L194.321 126.432Z" fill="#305F8D"/>
<path d="M193.75 100.126C196.203 100.784 198.728 99.3289 199.386 96.8725C200.043 94.42 198.589 91.8949 196.132 91.2368C193.68 90.5796 191.155 92.0342 190.497 94.4906C189.839 96.9432 191.294 99.4682 193.75 100.126Z" fill="#305F8D"/>
<path d="M159.339 109.4L178.516 96.2871C179.022 95.9374 179.795 96.1447 180.063 96.7016L189.445 116.245L213.329 99.9006C213.581 99.7296 213.889 99.6665 214.187 99.7464L214.199 99.7494C214.497 99.8293 214.732 100.038 214.868 100.301L228.152 127.453L236.623 95.8384L167.906 77.4258L159.337 109.407L159.339 109.4ZM196.679 89.2037C200.244 90.1591 202.382 93.8497 201.424 97.4229C200.467 100.996 196.778 103.126 193.205 102.168C189.632 101.211 187.502 97.5222 188.46 93.949C189.417 90.3759 193.106 88.2463 196.679 89.2037Z" fill="#305F8D"/>
<path d="M55.2093 189.4H59.9413V202.224C59.9413 203.213 60.2027 204.016 60.7253 204.632C61.248 205.248 62.032 205.556 63.0773 205.556C64.1413 205.556 64.9347 205.248 65.4573 204.632C65.98 204.016 66.2413 203.213 66.2413 202.224V189.4H70.9733V202.56C70.9733 203.792 70.768 204.865 70.3573 205.78C69.9653 206.695 69.4053 207.451 68.6773 208.048C67.968 208.627 67.128 209.065 66.1573 209.364C65.2053 209.663 64.1787 209.812 63.0773 209.812C61.976 209.812 60.9493 209.663 59.9973 209.364C59.0453 209.065 58.2053 208.627 57.4773 208.048C56.768 207.451 56.208 206.695 55.7973 205.78C55.4053 204.865 55.2093 203.792 55.2093 202.56V189.4ZM79.8822 200.124H84.7822L90.9142 209H85.3702L79.8822 200.124ZM74.9822 189.4H79.7142V209H74.9822V189.4ZM77.9502 193.404V189.4H82.1222C83.8022 189.4 85.2022 189.671 86.3222 190.212C87.4422 190.753 88.2915 191.509 88.8702 192.48C89.4488 193.432 89.7382 194.543 89.7382 195.812C89.7382 197.063 89.4488 198.173 88.8702 199.144C88.2915 200.096 87.4422 200.843 86.3222 201.384C85.2022 201.925 83.8022 202.196 82.1222 202.196H77.9502V198.528H81.7862C82.4208 198.528 82.9622 198.435 83.4102 198.248C83.8768 198.043 84.2315 197.753 84.4742 197.38C84.7168 196.988 84.8382 196.521 84.8382 195.98C84.8382 195.439 84.7168 194.981 84.4742 194.608C84.2315 194.216 83.8768 193.917 83.4102 193.712C82.9622 193.507 82.4208 193.404 81.7862 193.404H77.9502ZM93.1111 189.4H97.8431V204.94H105.711V209H93.1111V189.4ZM121.339 199.004L120.163 209H115.179L118.343 188.42L126.687 200.376L135.059 188.42L138.223 209H133.239L132.063 199.004L126.687 207.18L121.339 199.004ZM147.368 209.28C145.875 209.28 144.577 209.009 143.476 208.468C142.393 207.908 141.553 207.124 140.956 206.116C140.359 205.108 140.06 203.923 140.06 202.56C140.06 201.179 140.349 199.984 140.928 198.976C141.507 197.968 142.337 197.193 143.42 196.652C144.521 196.111 145.819 195.84 147.312 195.84C148.805 195.84 150.065 196.101 151.092 196.624C152.119 197.128 152.903 197.865 153.444 198.836C153.985 199.807 154.256 200.983 154.256 202.364C154.256 202.569 154.256 202.775 154.256 202.98C154.256 203.167 154.237 203.325 154.2 203.456H142.44V201.104H150.392L149.384 202.392C149.477 202.261 149.552 202.103 149.608 201.916C149.683 201.711 149.72 201.543 149.72 201.412C149.72 200.852 149.617 200.367 149.412 199.956C149.207 199.545 148.917 199.228 148.544 199.004C148.171 198.78 147.732 198.668 147.228 198.668C146.593 198.668 146.061 198.808 145.632 199.088C145.203 199.368 144.876 199.797 144.652 200.376C144.447 200.936 144.335 201.645 144.316 202.504C144.316 203.288 144.428 203.96 144.652 204.52C144.876 205.08 145.212 205.509 145.66 205.808C146.108 206.088 146.659 206.228 147.312 206.228C148.059 206.228 148.693 206.088 149.216 205.808C149.757 205.528 150.187 205.108 150.504 204.548L154.284 205.472C153.612 206.741 152.697 207.693 151.54 208.328C150.401 208.963 149.011 209.28 147.368 209.28ZM166.639 187.16H170.867V209H166.639V187.16ZM156.111 202.56C156.111 201.104 156.4 199.881 156.979 198.892C157.576 197.903 158.342 197.147 159.275 196.624C160.208 196.101 161.198 195.84 162.243 195.84C163.326 195.84 164.278 196.111 165.099 196.652C165.939 197.193 166.602 197.968 167.087 198.976C167.572 199.965 167.815 201.16 167.815 202.56C167.815 203.941 167.572 205.136 167.087 206.144C166.602 207.152 165.939 207.927 165.099 208.468C164.278 209.009 163.326 209.28 162.243 209.28C161.198 209.28 160.208 209.019 159.275 208.496C158.342 207.973 157.576 207.217 156.979 206.228C156.4 205.22 156.111 203.997 156.111 202.56ZM160.563 202.56C160.563 203.232 160.703 203.82 160.983 204.324C161.263 204.809 161.636 205.192 162.103 205.472C162.57 205.733 163.083 205.864 163.643 205.864C164.128 205.864 164.595 205.733 165.043 205.472C165.51 205.211 165.892 204.837 166.191 204.352C166.49 203.848 166.639 203.251 166.639 202.56C166.639 201.869 166.49 201.281 166.191 200.796C165.892 200.292 165.51 199.909 165.043 199.648C164.595 199.387 164.128 199.256 163.643 199.256C163.083 199.256 162.57 199.396 162.103 199.676C161.636 199.937 161.263 200.32 160.983 200.824C160.703 201.309 160.563 201.888 160.563 202.56ZM173.896 191.276C173.896 190.604 174.139 190.063 174.624 189.652C175.109 189.223 175.688 189.008 176.36 189.008C177.051 189.008 177.629 189.223 178.096 189.652C178.581 190.063 178.824 190.604 178.824 191.276C178.824 191.948 178.581 192.499 178.096 192.928C177.629 193.357 177.051 193.572 176.36 193.572C175.688 193.572 175.109 193.357 174.624 192.928C174.139 192.499 173.896 191.948 173.896 191.276ZM174.316 196.12H178.404V209H174.316V196.12ZM185.162 204.968C185.162 205.304 185.246 205.593 185.414 205.836C185.582 206.06 185.806 206.237 186.086 206.368C186.366 206.48 186.674 206.536 187.01 206.536C187.496 206.536 187.944 206.433 188.354 206.228C188.765 206.023 189.101 205.715 189.362 205.304C189.624 204.893 189.754 204.389 189.754 203.792L190.202 205.472C190.202 206.293 189.978 206.993 189.53 207.572C189.082 208.132 188.504 208.561 187.794 208.86C187.085 209.14 186.32 209.28 185.498 209.28C184.677 209.28 183.912 209.131 183.202 208.832C182.512 208.515 181.952 208.048 181.522 207.432C181.112 206.816 180.906 206.069 180.906 205.192C180.906 203.96 181.345 202.989 182.222 202.28C183.1 201.552 184.341 201.188 185.946 201.188C186.73 201.188 187.43 201.263 188.046 201.412C188.681 201.561 189.222 201.748 189.67 201.972C190.118 202.196 190.454 202.429 190.678 202.672V204.548C190.23 204.212 189.708 203.96 189.11 203.792C188.532 203.605 187.916 203.512 187.262 203.512C186.758 203.512 186.357 203.568 186.058 203.68C185.76 203.792 185.536 203.96 185.386 204.184C185.237 204.389 185.162 204.651 185.162 204.968ZM183.286 200.068L181.858 197.24C182.586 196.885 183.464 196.549 184.49 196.232C185.517 195.915 186.637 195.756 187.85 195.756C188.989 195.756 190.006 195.924 190.902 196.26C191.798 196.577 192.508 197.044 193.03 197.66C193.553 198.276 193.814 199.032 193.814 199.928V209H189.754V200.88C189.754 200.563 189.698 200.292 189.586 200.068C189.493 199.825 189.344 199.62 189.138 199.452C188.933 199.284 188.672 199.163 188.354 199.088C188.056 199.013 187.71 198.976 187.318 198.976C186.74 198.976 186.17 199.041 185.61 199.172C185.069 199.303 184.593 199.461 184.182 199.648C183.772 199.816 183.473 199.956 183.286 200.068ZM69.975 217.4H74.707V230.224C74.707 231.213 74.9683 232.016 75.491 232.632C76.0136 233.248 76.7976 233.556 77.843 233.556C78.907 233.556 79.7003 233.248 80.223 232.632C80.7456 232.016 81.007 231.213 81.007 230.224V217.4H85.739V230.56C85.739 231.792 85.5336 232.865 85.123 233.78C84.731 234.695 84.171 235.451 83.443 236.048C82.7336 236.627 81.8936 237.065 80.923 237.364C79.971 237.663 78.9443 237.812 77.843 237.812C76.7416 237.812 75.715 237.663 74.763 237.364C73.811 237.065 72.971 236.627 72.243 236.048C71.5336 235.451 70.9736 234.695 70.563 233.78C70.171 232.865 69.975 231.792 69.975 230.56V217.4ZM93.5278 243.16H89.2998V224.12H93.5278V243.16ZM104.056 230.56C104.056 232.053 103.757 233.313 103.16 234.34C102.581 235.367 101.825 236.141 100.892 236.664C99.9771 237.187 98.9878 237.448 97.9238 237.448C96.8038 237.448 95.8331 237.168 95.0118 236.608C94.2091 236.029 93.5931 235.227 93.1638 234.2C92.7344 233.155 92.5198 231.941 92.5198 230.56C92.5198 229.16 92.7344 227.947 93.1638 226.92C93.5931 225.893 94.2091 225.1 95.0118 224.54C95.8331 223.961 96.8038 223.672 97.9238 223.672C98.9878 223.672 99.9771 223.933 100.892 224.456C101.825 224.979 102.581 225.753 103.16 226.78C103.757 227.788 104.056 229.048 104.056 230.56ZM99.6038 230.56C99.6038 229.888 99.4638 229.319 99.1838 228.852C98.9038 228.385 98.5304 228.031 98.0638 227.788C97.5971 227.545 97.0838 227.424 96.5238 227.424C96.0384 227.424 95.5624 227.545 95.0958 227.788C94.6478 228.012 94.2744 228.357 93.9758 228.824C93.6771 229.291 93.5278 229.869 93.5278 230.56C93.5278 231.251 93.6771 231.829 93.9758 232.296C94.2744 232.763 94.6478 233.117 95.0958 233.36C95.5624 233.584 96.0384 233.696 96.5238 233.696C97.0838 233.696 97.5971 233.575 98.0638 233.332C98.5304 233.089 98.9038 232.735 99.1838 232.268C99.4638 231.801 99.6038 231.232 99.6038 230.56ZM106.609 215.16H110.865V237H106.609V215.16ZM113.4 230.56C113.4 229.197 113.717 228.012 114.352 227.004C114.987 225.996 115.864 225.212 116.984 224.652C118.104 224.092 119.364 223.812 120.764 223.812C122.164 223.812 123.415 224.092 124.516 224.652C125.636 225.212 126.513 225.996 127.148 227.004C127.801 228.012 128.128 229.197 128.128 230.56C128.128 231.904 127.801 233.08 127.148 234.088C126.513 235.096 125.636 235.88 124.516 236.44C123.415 237 122.164 237.28 120.764 237.28C119.364 237.28 118.104 237 116.984 236.44C115.864 235.88 114.987 235.096 114.352 234.088C113.717 233.08 113.4 231.904 113.4 230.56ZM117.74 230.56C117.74 231.232 117.88 231.811 118.16 232.296C118.44 232.763 118.804 233.127 119.252 233.388C119.7 233.649 120.204 233.78 120.764 233.78C121.305 233.78 121.8 233.649 122.248 233.388C122.715 233.127 123.079 232.763 123.34 232.296C123.62 231.811 123.76 231.232 123.76 230.56C123.76 229.888 123.62 229.309 123.34 228.824C123.079 228.339 122.715 227.965 122.248 227.704C121.8 227.443 121.305 227.312 120.764 227.312C120.204 227.312 119.7 227.443 119.252 227.704C118.804 227.965 118.44 228.339 118.16 228.824C117.88 229.309 117.74 229.888 117.74 230.56ZM133.948 232.968C133.948 233.304 134.032 233.593 134.2 233.836C134.368 234.06 134.592 234.237 134.872 234.368C135.152 234.48 135.46 234.536 135.796 234.536C136.281 234.536 136.729 234.433 137.14 234.228C137.55 234.023 137.886 233.715 138.148 233.304C138.409 232.893 138.54 232.389 138.54 231.792L138.988 233.472C138.988 234.293 138.764 234.993 138.316 235.572C137.868 236.132 137.289 236.561 136.58 236.86C135.87 237.14 135.105 237.28 134.284 237.28C133.462 237.28 132.697 237.131 131.988 236.832C131.297 236.515 130.737 236.048 130.308 235.432C129.897 234.816 129.692 234.069 129.692 233.192C129.692 231.96 130.13 230.989 131.008 230.28C131.885 229.552 133.126 229.188 134.732 229.188C135.516 229.188 136.216 229.263 136.832 229.412C137.466 229.561 138.008 229.748 138.456 229.972C138.904 230.196 139.24 230.429 139.464 230.672V232.548C139.016 232.212 138.493 231.96 137.896 231.792C137.317 231.605 136.701 231.512 136.048 231.512C135.544 231.512 135.142 231.568 134.844 231.68C134.545 231.792 134.321 231.96 134.172 232.184C134.022 232.389 133.948 232.651 133.948 232.968ZM132.072 228.068L130.644 225.24C131.372 224.885 132.249 224.549 133.276 224.232C134.302 223.915 135.422 223.756 136.636 223.756C137.774 223.756 138.792 223.924 139.688 224.26C140.584 224.577 141.293 225.044 141.816 225.66C142.338 226.276 142.6 227.032 142.6 227.928V237H138.54V228.88C138.54 228.563 138.484 228.292 138.372 228.068C138.278 227.825 138.129 227.62 137.924 227.452C137.718 227.284 137.457 227.163 137.14 227.088C136.841 227.013 136.496 226.976 136.104 226.976C135.525 226.976 134.956 227.041 134.396 227.172C133.854 227.303 133.378 227.461 132.968 227.648C132.557 227.816 132.258 227.956 132.072 228.068ZM155.537 215.16H159.765V237H155.537V215.16ZM145.009 230.56C145.009 229.104 145.299 227.881 145.877 226.892C146.475 225.903 147.24 225.147 148.173 224.624C149.107 224.101 150.096 223.84 151.141 223.84C152.224 223.84 153.176 224.111 153.997 224.652C154.837 225.193 155.5 225.968 155.985 226.976C156.471 227.965 156.713 229.16 156.713 230.56C156.713 231.941 156.471 233.136 155.985 234.144C155.5 235.152 154.837 235.927 153.997 236.468C153.176 237.009 152.224 237.28 151.141 237.28C150.096 237.28 149.107 237.019 148.173 236.496C147.24 235.973 146.475 235.217 145.877 234.228C145.299 233.22 145.009 231.997 145.009 230.56ZM149.461 230.56C149.461 231.232 149.601 231.82 149.881 232.324C150.161 232.809 150.535 233.192 151.001 233.472C151.468 233.733 151.981 233.864 152.541 233.864C153.027 233.864 153.493 233.733 153.941 233.472C154.408 233.211 154.791 232.837 155.089 232.352C155.388 231.848 155.537 231.251 155.537 230.56C155.537 229.869 155.388 229.281 155.089 228.796C154.791 228.292 154.408 227.909 153.941 227.648C153.493 227.387 153.027 227.256 152.541 227.256C151.981 227.256 151.468 227.396 151.001 227.676C150.535 227.937 150.161 228.32 149.881 228.824C149.601 229.309 149.461 229.888 149.461 230.56ZM169.599 237.28C168.105 237.28 166.808 237.009 165.707 236.468C164.624 235.908 163.784 235.124 163.187 234.116C162.589 233.108 162.291 231.923 162.291 230.56C162.291 229.179 162.58 227.984 163.159 226.976C163.737 225.968 164.568 225.193 165.651 224.652C166.752 224.111 168.049 223.84 169.543 223.84C171.036 223.84 172.296 224.101 173.323 224.624C174.349 225.128 175.133 225.865 175.675 226.836C176.216 227.807 176.487 228.983 176.487 230.364C176.487 230.569 176.487 230.775 176.487 230.98C176.487 231.167 176.468 231.325 176.431 231.456H164.671V229.104H172.623L171.615 230.392C171.708 230.261 171.783 230.103 171.839 229.916C171.913 229.711 171.951 229.543 171.951 229.412C171.951 228.852 171.848 228.367 171.643 227.956C171.437 227.545 171.148 227.228 170.775 227.004C170.401 226.78 169.963 226.668 169.459 226.668C168.824 226.668 168.292 226.808 167.863 227.088C167.433 227.368 167.107 227.797 166.883 228.376C166.677 228.936 166.565 229.645 166.547 230.504C166.547 231.288 166.659 231.96 166.883 232.52C167.107 233.08 167.443 233.509 167.891 233.808C168.339 234.088 168.889 234.228 169.543 234.228C170.289 234.228 170.924 234.088 171.447 233.808C171.988 233.528 172.417 233.108 172.735 232.548L176.515 233.472C175.843 234.741 174.928 235.693 173.771 236.328C172.632 236.963 171.241 237.28 169.599 237.28ZM183.269 224.12V237H179.097V224.12H183.269ZM186.993 228.488C186.769 228.264 186.527 228.087 186.265 227.956C186.023 227.825 185.715 227.76 185.341 227.76C184.931 227.76 184.567 227.872 184.249 228.096C183.932 228.32 183.689 228.647 183.521 229.076C183.353 229.505 183.269 230.028 183.269 230.644L182.261 229.16C182.261 228.133 182.457 227.219 182.849 226.416C183.26 225.613 183.792 224.979 184.445 224.512C185.099 224.045 185.78 223.812 186.489 223.812C186.956 223.812 187.404 223.905 187.833 224.092C188.263 224.279 188.589 224.54 188.813 224.876L186.993 228.488Z" fill="#1D3F73"/>
<defs>
<linearGradient id="paint0_linear_124_63" x1="79.3121" y1="82.3341" x2="121.004" y2="168.677" gradientUnits="userSpaceOnUse">
<stop stop-color="#1D3F73"/>
<stop offset="0.17" stop-color="#305F8D"/>
</linearGradient>
</defs>
</svg>
